<?xml version="1.0" encoding="UTF-8"?>
<!DOCTYPE svg PUBLIC "-//W3C//DTD SVG 1.1//EN" "http://www.w3.org/Graphics/SVG/1.1/DTD/svg11.dtd">
<!-- Creator: CorelDRAW 2020 (64-Bit) -->
<svg xmlns="http://www.w3.org/2000/svg" xml:space="preserve" width="1.207in" height="0.405in" version="1.1" style="shape-rendering:geometricPrecision; text-rendering:geometricPrecision; image-rendering:optimizeQuality; fill-rule:evenodd; clip-rule:evenodd"
viewBox="0 0 1207 405"
 xmlns:xlink="http://www.w3.org/1999/xlink"
 xmlns:xodm="http://www.corel.com/coreldraw/odm/2003">
 <defs>
  <style type="text/css">
   <![CDATA[
    .fil0 {fill:#373435}
    .fil2 {fill:#3186FF}
    .fil1 {fill:#FBBC05}
   ]]>
  </style>
 </defs>
 <g id="Layer_x0020_1">
  <metadata id="CorelCorpID_0Corel-Layer"/>
  <g id="_2298270096000">
   <path class="fil0" d="M98.11 0.65c-67.66,0 -101.2,38.17 -101.2,115.66l0 289.13 370.11 0 0 -86.74 -283.36 0 0 -187.93c0,-28.92 12.14,-43.37 36.43,-43.37l247.5 0 0 -86.74 -269.48 0z"/>
   <polygon class="fil1" points="332.33,159.68 155.94,159.68 155.94,246.42 332.33,246.42 "/>
   <path class="fil0" d="M483.67 168.93c-11.52,4.97 -21.69,11.85 -30.36,20.52 -8.67,8.67 -15.52,18.8 -20.53,30.36 -5,11.57 -7.51,24.09 -7.51,37.59l0 145.15 89.63 0 0 -160.76 168.61 0.58 0 160.76 89.63 0 0 -401.9 -89.63 0 0 160.76 -162.83 -0.58c-13.11,-0.04 -25.48,2.55 -37.01,7.52z"/>
   <path class="fil0" d="M830.81 160.26l0 130.11c0,77.49 38.17,115.65 115.65,115.65l131.85 0c162.5,0 156.72,-191.98 42.22,-215.7 50.31,-60.14 28.34,-189.09 -80.96,-189.09l-208.76 0 0 86.74 197.19 0c38.75,0 39.32,72.29 0,72.29l-197.19 0zm86.74 115.65l0 -28.91 160.76 0c49.74,0 49.16,72.28 0,72.28l-117.39 0c-28.92,0 -43.37,-14.46 -43.37,-43.37z"/>
   <path class="fil2" d="M425.26 85.65l43.85 0c1.83,-24.91 21.18,-44.95 45.78,-47.85l0 -37.15 -89.63 0 0 85z"/>
  </g>
 </g>
</svg>
