<?xml version="1.0" encoding="UTF-8"?>
<!DOCTYPE svg PUBLIC "-//W3C//DTD SVG 1.1//EN" "http://www.w3.org/Graphics/SVG/1.1/DTD/svg11.dtd">
<!-- Creator: CorelDRAW 2020 (64-Bit) -->
<svg xmlns="http://www.w3.org/2000/svg" xml:space="preserve" width="2.682in" height="0.901in" version="1.1" style="shape-rendering:geometricPrecision; text-rendering:geometricPrecision; image-rendering:optimizeQuality; fill-rule:evenodd; clip-rule:evenodd"
viewBox="0 0 2682 901"
 xmlns:xlink="http://www.w3.org/1999/xlink"
 xmlns:xodm="http://www.corel.com/coreldraw/odm/2003">
 <defs>
  <style type="text/css">
   <![CDATA[
    .fil3 {fill:#FEFEFE}
    .fil0 {fill:#373435}
    .fil2 {fill:#3186FF}
    .fil1 {fill:#FBBC05}
   ]]>
  </style>
 </defs>
 <g id="Layer_x0020_1">
  <metadata id="CorelCorpID_0Corel-Layer"/>
  <g id="_2281123867840">
   <path class="fil0" d="M222.71 2.94c-150.34,0 -224.86,84.81 -224.86,257l0 642.48 822.39 0 0 -192.75 -629.64 0 0 -417.61c0,-64.26 26.98,-96.39 80.95,-96.39l549.96 0 0 -192.75 -598.8 0z"/>
   <polygon class="fil1" points="743.14,356.32 351.21,356.32 351.21,549.07 743.14,549.07 "/>
   <polygon class="fil2" points="949.65,2.94 949.65,191.83 1148.82,191.83 1148.82,2.94 "/>
   <path class="fil0" d="M1079.43 376.89c-25.6,11.05 -48.19,26.33 -67.46,45.61 -19.27,19.28 -34.48,41.77 -45.62,67.46 -11.13,25.71 -16.7,53.54 -16.7,83.53l0 322.52 199.17 0 0 -357.22 374.67 1.29 0 357.22 199.17 0 0 -893.07 -199.17 0 0 357.23 -361.81 -1.29c-29.13,-0.09 -56.63,5.66 -82.24,16.71z"/>
   <path class="fil0" d="M1850.79 357.61l0 289.12c0,172.18 84.81,256.99 256.99,256.99l292.97 0c361.09,0 348.23,-426.6 93.81,-479.3 111.79,-133.63 62.97,-420.19 -179.91,-420.19l-463.87 0 0 192.74 438.17 0c86.1,0 87.37,160.63 0,160.63l-438.17 0zm192.74 256.99l0 -64.24 357.22 0c110.52,0 109.23,160.62 0,160.62l-260.85 0c-64.26,0 -96.37,-32.13 -96.37,-96.37z"/>
   <circle class="fil3" cx="1162.51" cy="200.43" r="115.73"/>
  </g>
 </g>
</svg>
